<?xml version="1.0" standalone="no"?>
<!DOCTYPE svg PUBLIC "-//W3C//DTD SVG 20010904//EN"
 "http://www.w3.org/TR/2001/REC-SVG-20010904/DTD/svg10.dtd">
<svg version="1.0" xmlns="http://www.w3.org/2000/svg"
 width="240.000000pt" height="210.000000pt" viewBox="0 0 240.000000 210.000000"
 preserveAspectRatio="xMidYMid meet">

<g transform="translate(0.000000,210.000000) scale(0.100000,-0.100000)"
fill="#000000" stroke="none">
<path d="M1213 2076 c-29 -11 -53 -26 -53 -31 0 -6 97 -130 215 -275 118 -146
214 -268 215 -272 0 -8 -294 -178 -309 -178 -6 0 -70 29 -141 65 -71 36 -137
65 -145 65 -20 0 -75 -28 -75 -38 0 -4 41 -54 90 -112 49 -58 90 -108 90 -111
0 -4 -16 -19 -35 -33 -19 -15 -42 -40 -50 -55 -14 -28 -14 -29 12 -34 15 -3
49 1 77 8 28 7 52 12 53 11 1 -1 19 -62 39 -136 20 -74 38 -137 39 -138 6 -6
39 8 62 26 19 14 25 38 42 164 12 82 21 150 21 154 0 3 73 41 162 84 110 53
165 75 169 67 3 -7 50 -157 104 -334 54 -178 102 -323 107 -323 5 0 29 13 52
29 43 30 43 30 49 107 4 42 8 149 8 238 1 89 4 228 8 310 l6 149 127 49 c137
53 209 104 234 165 29 69 13 104 -57 123 -55 15 -123 -4 -282 -79 -96 -45
-133 -58 -146 -52 -9 6 -152 97 -317 203 -164 107 -303 196 -309 199 -5 3 -34
-4 -62 -15z"/>
<path d="M959 1954 c-471 -85 -809 -496 -809 -984 0 -43 5 -82 10 -85 6 -4 32
11 58 32 26 22 69 55 96 74 l48 34 -51 3 -52 3 7 52 c11 93 35 180 74 265 l39
82 135 0 136 0 -34 -68 c-34 -67 -76 -183 -76 -208 0 -9 16 -4 45 15 40 25 53
44 103 142 44 88 62 115 79 117 12 2 25 13 29 25 3 12 13 30 21 39 8 9 12 21
9 27 -8 12 87 122 185 216 l74 70 3 -128 3 -127 91 -46 92 -46 44 23 c24 13
45 26 47 29 2 3 -38 5 -88 5 l-92 0 -5 150 -5 151 -63 77 c-35 42 -66 77 -70
76 -4 0 -41 -7 -83 -15z m-45 -196 c-50 -51 -118 -128 -153 -170 l-62 -78
-130 0 c-71 0 -129 4 -129 8 0 14 151 156 203 191 94 64 272 136 346 140 8 1
-26 -41 -75 -91z"/>
<path d="M760 1120 c-304 -178 -527 -340 -619 -452 -151 -184 -180 -361 -75
-476 85 -95 241 -133 422 -102 66 11 91 30 39 30 -41 0 -182 40 -244 69 -116
55 -120 126 -13 232 105 106 410 283 705 410 55 23 102 44 103 45 2 1 1 16 -3
33 -6 28 -10 31 -46 31 -125 0 -186 109 -124 219 14 23 25 45 25 47 0 11 -26
-3 -170 -86z"/>
<path d="M1470 1016 c0 -7 -3 -28 -6 -45 l-6 -31 106 0 c107 0 107 0 100 23
-22 70 -16 67 -109 67 -65 0 -85 -3 -85 -14z"/>
<path d="M1671 909 c-2 -56 -43 -188 -86 -276 l-46 -93 -179 0 -180 0 0 74 c0
70 -2 76 -30 105 -49 49 -60 35 -60 -80 l0 -99 -180 0 c-113 0 -180 4 -180 10
0 19 -25 10 -110 -40 l-85 -50 76 0 77 0 77 -95 c43 -53 114 -129 158 -170
l81 -74 -61 14 c-153 36 -296 112 -408 216 -34 33 -66 59 -71 59 -5 0 -24 -13
-43 -29 -33 -27 -33 -28 -18 -52 19 -29 100 -100 172 -151 100 -72 245 -132
380 -159 77 -15 283 -15 360 0 284 57 528 228 671 471 24 41 44 78 44 82 0 4
-22 -7 -49 -24 -42 -25 -56 -29 -88 -23 -21 3 -86 9 -145 12 -60 2 -108 7
-108 9 0 3 9 22 20 44 11 21 30 67 43 102 l24 63 -28 90 c-15 50 -28 78 -28
64z m-581 -594 c0 -84 -4 -145 -9 -145 -13 0 -232 217 -260 258 l-22 32 145 0
146 0 0 -145z m380 137 c0 -13 -170 -191 -234 -245 l-56 -49 0 151 0 151 145
0 c80 0 145 -4 145 -8z m351 -10 c-19 -36 -149 -149 -225 -197 -76 -47 -249
-115 -294 -115 -19 0 -9 14 60 79 46 43 114 117 152 165 l70 86 123 0 c117 0
123 -1 114 -18z"/>
</g>
</svg>
